<svg width="39" height="38" viewBox="0 0 39 38" fill="none" xmlns="http://www.w3.org/2000/svg">
<path d="M8.43045 12.6671V11.7654H30.6037V12.6671V15.6076H32.0353V11.5301C32.0353 10.942 31.5813 10.4323 31.0576 10.4323H18.4171C17.9632 10.4323 17.5442 10.1579 17.2998 9.72659L16.0427 7.49183C15.7983 7.06055 15.3792 6.78613 14.9253 6.78613H7.94159C7.41783 6.78613 6.96387 7.29584 6.96387 7.88392V15.5684H8.3955V12.6671H8.43045Z" fill="#005993"/>
<path d="M30.5914 11.5781H8.46973V12.3721H30.5914V11.5781Z" fill="url(#paint0_linear_1183_19408)"/>
<path d="M30.5914 12.4072H8.46973V14.9962H30.5914V12.4072Z" fill="white"/>
<path d="M32.4728 14.9287H32.0199H30.5916H8.46991H7.00674H6.55383C5.96159 14.9287 5.50869 15.4212 5.57838 16.0191L6.90217 30.3351C6.97186 30.8275 7.42471 31.2144 7.98213 31.2144H31.0096C31.5321 31.2144 32.0199 30.8275 32.0896 30.3351L33.4134 16.0191C33.5179 15.4212 33.065 14.9287 32.4728 14.9287Z" fill="#005993"/>
<defs>
<linearGradient id="paint0_linear_1183_19408" x1="15.1062" y1="12.3986" x2="15.1256" y2="11.192" gradientUnits="userSpaceOnUse">
<stop stop-color="#EA114E"/>
<stop offset="1" stop-color="#FFA4BD"/>
</linearGradient>
</defs>
</svg>
