<svg width="44" height="44" viewBox="0 0 44 44" fill="none" xmlns="http://www.w3.org/2000/svg">
<path d="M8.84627 14.6926L22.6076 12.0569L22.96 17.5268L20.5504 17.7292L8.84627 14.6926Z" fill="#FD9F9D"/>
<path d="M22.616 12.0609L34.6643 15.2999L26.751 17.5268L22.616 17.7292L22.616 12.0609Z" fill="#FFB8C2"/>
<path d="M20.5503 17.7536L34.6641 15.2998V33.1145L20.5503 36.9998V17.7536Z" fill="#005993"/>
<path d="M8.84668 14.895L20.5508 17.9316V36.9929L8.84668 32.6784L8.84668 14.895Z" fill="#338DC0"/>
<path d="M20.5503 17.7295L34.6641 15.3002L39.9998 19.9563L23.9927 24.2076L20.5503 17.7295Z" fill="#FFE6E8"/>
<path d="M8.84632 14.693L20.5504 17.7296L16.4196 24.2077L4.02698 20.1589L8.84632 14.693Z" fill="#FFE6E8"/>
<path d="M34.6646 15.3002L22.6162 12.0611L26.8921 7.60742L39.1125 10.2391L34.6646 15.3002Z" fill="#FFE6E8"/>
<path d="M22.616 12.061L9.01858 14.6927L4.68848 8.82196L18.8022 7L22.616 12.061Z" fill="#FFE6E8"/>
</svg>
